<?xml version="1.0" standalone="no"?> <!DOCTYPE svg PUBLIC "-//W3C//DTD SVG 1.0//EN" "http://www.w3.org/TR/2001/REC-SVG-20010904/DTD/svg10.dtd" > <svg xmlns="http://www.w3.org/2000/svg" width="100%" height="100%">
<defs >
<font id="ogloboxcondensedlight" horiz-adv-x="264" ><font-face
    font-family="Oglobo X-Condensed"
    units-per-em="1000"
    panose-1="0 0 0 0 0 0 0 0 0 0"
    ascent="830"
    descent="-170"
    alphabetic="0" />
<missing-glyph horiz-adv-x="608" />
<glyph unicode=" " glyph-name="space" horiz-adv-x="110" />
<glyph unicode="!" glyph-name="exclam" horiz-adv-x="105" d="M22 60H82V0H22V60ZM58 145H47L26 448V630H79V448L58 145Z" />
<glyph unicode="&quot;" glyph-name="quotedbl" horiz-adv-x="155" d="M20 445V630H64V445H20ZM91 445V630H135V445H91Z" />
<glyph unicode="#" glyph-name="numbersign" horiz-adv-x="372" d="M357 424H288L254 214H333L328 173H247L219 0H177L205 173H127L99 0H56L84 173H10L15 214H91L125 424H39L44 465H131L158 630H200L174 465H252L278 630H321L294 465H362L357 424ZM211 214L245
424H167L133 214H211Z" />
<glyph unicode="$" glyph-name="dollar" horiz-adv-x="278" d="M155 334L175 315Q202 290 217 273T248 219T263 138Q263 78 235 38T155 -7V-64H123V-7Q17 4 12 159L56 164Q61 47 123 33V297L98 321Q71 347 58 363T32 414T18 494Q18 552 45 591T123 637V695H155V637Q253
626 260 485L215 480Q210 587 155 597V334ZM123 364V597Q66 584 66 494Q66 443 78 418T123 364ZM155 266V33Q215 45 215 138Q215 185 201 210T155 266Z" />
<glyph unicode="%" glyph-name="percent" horiz-adv-x="404" d="M58 550T58 498T69 423T107 399T144 422T156 498T145 573T107 597T70 574ZM199 563T199 498T176 397T107 361T38 397T15 498T38 599T107 635T176 599ZM38 0L324 630H366L80 0H38ZM248 184T248 132T259
57T297 33T334 56T346 132T335 207T297 231T260 208ZM389 197T389 132T366 31T297 -5T228 31T205 132T228 233T297 269T366 233Z" />
<glyph unicode="&amp;" glyph-name="ampersand" horiz-adv-x="351" d="M346 45L351 10Q334 -4 315 -4Q273 -4 241 49Q197 -8 138 -8Q81 -8 44 38T6 161Q6 267 94 341Q77 372 69 390T52 440T43 502Q43 562 72 600T149 638Q193 638 220 602T248 514Q248 454 223
415T148 336L245 136Q272 208 281 318L319 313Q306 175 267 93Q277 73 282 64T298 47T320 39T346 45ZM149 594Q123 594 106 571T89 502Q89 453 130 371Q170 402 186 433T203 514Q203 547 190 570T149 594ZM221 86L112 306Q53 250 53 162Q53 108 76 73T143 37Q188
37 221 86Z" />
<glyph unicode="&apos;" glyph-name="quotesingle" horiz-adv-x="86" d="M20 445V630H66V445H20Z" />
<glyph unicode="(" glyph-name="parenleft" horiz-adv-x="150" d="M20 63T20 288T105 660H150Q67 506 67 288T150 -84H105Q20 63 20 288Z" />
<glyph unicode=")" glyph-name="parenright" horiz-adv-x="150" d="M0 660H45Q130 513 130 288T45 -84H0Q83 70 83 288T0 660Z" />
<glyph unicode="*" glyph-name="asterisk" horiz-adv-x="224" d="M14 555L25 588L94 563V638H129V563L199 588L210 555L139 534L182 474L155 453L110 513L68 452L42 474L85 532L14 555Z" />
<glyph unicode="+" glyph-name="plus" horiz-adv-x="349" d="M319 320V281H194V156H154V281H30V320H154V445H194V320H319Z" />
<glyph unicode="," glyph-name="comma" horiz-adv-x="96" d="M18 0V60H78V-6Q78 -47 67 -63T18 -79V-49Q38 -48 42 -40T46 0H18Z" />
<glyph unicode="-" glyph-name="hyphen" horiz-adv-x="160" d="M18 232V276H142V232H18Z" />
<glyph unicode="." glyph-name="period" horiz-adv-x="96" d="M18 0V60H78V0H18Z" />
<glyph unicode="/" glyph-name="slash" horiz-adv-x="155" d="M-10 -84L110 660H155L35 -84H-10Z" />
<glyph unicode="0" glyph-name="zero" horiz-adv-x="320" d="M294 372V258Q294 124 263 58T160 -8T58 58T26 258V372Q26 506 57 572T160 638T262 572T294 372ZM77 392V238Q77 135 96 85T160 34T224 84T243 238V392Q243 495 224 545T160 596T96 546T77 392Z" />
<glyph unicode="1" glyph-name="one" horiz-adv-x="163" d="M0 509V540Q52 541 70 560T106 636H129V0H79V509H0Z" />
<glyph unicode="2" glyph-name="two" horiz-adv-x="278" d="M185 243L71 45H268V0H12V32L144 260Q181 325 196 369T211 473Q211 596 141 596Q101 596 83 560T61 453L17 458Q19 542 49 590T141 638Q199 638 229 596T259 473Q259 407 242 360T185 243Z" />
<glyph unicode="3" glyph-name="three" horiz-adv-x="274" d="M76 293V341Q97 337 127 337Q168 337 187 366T206 461Q206 599 133 599T57 455L14 462Q22 638 133 638Q254 638 254 461Q254 402 234 362T179 317Q216 309 236 272T256 174Q256 -8 132 -8Q67 -8 39
41T11 168L56 175Q56 31 132 31T208 174Q208 240 189 268T127 297Q97 297 76 293Z" />
<glyph unicode="4" glyph-name="four" horiz-adv-x="318" d="M247 630V203H313V163H247V0H199V163H5V196L202 630H247ZM199 536L48 203H199V536Z" />
<glyph unicode="5" glyph-name="five" horiz-adv-x="285" d="M26 285Q48 394 50 630H255V582H92Q89 451 78 365Q86 388 106 399T149 411Q265 411 265 206Q265 -8 139 -8Q23 -8 17 167L62 174Q67 31 139 31Q180 31 198 72T217 205Q217 371 138 371Q109 371 92 346T72
282L26 285Z" />
<glyph unicode="6" glyph-name="six" horiz-adv-x="307" d="M77 188Q77 116 97 75T157 33T217 74T238 188Q238 261 218 302T157 343Q77 343 77 188ZM160 638Q271 638 278 464L232 458Q229 529 213 563T160 597Q120 597 97 539T74 373V313Q83 345 108 365T165 385Q226
385 256 332T287 188Q287 103 255 48T159 -8Q88 -8 57 57T26 255V361Q26 638 160 638Z" />
<glyph unicode="7" glyph-name="seven" horiz-adv-x="276" d="M221 582H5V630H271V595Q150 429 150 0H100Q100 415 221 582Z" />
<glyph unicode="8" glyph-name="eight" horiz-adv-x="290" d="M68 341T145 341T222 469Q222 599 145 599T68 469Q68 341 145 341ZM66 31T145 31T224 166T145 301T66 166ZM272 -8T145 -8T18 166Q18 230 38 270T96 319Q60 326 40 366T20 469Q20 638 145 638T270
469Q270 406 250 366T194 319Q231 311 251 271T272 166Q272 -8 145 -8Z" />
<glyph unicode="9" glyph-name="nine" horiz-adv-x="307" d="M230 442Q230 514 210 555T150 597T90 556T69 442Q69 369 89 328T150 287Q230 287 230 442ZM147 -8Q36 -8 29 166L75 172Q78 101 94 67T147 33Q187 33 210 91T233 257V317Q224 285 199 265T142 245Q81
245 51 298T20 442Q20 527 52 582T148 638Q219 638 250 573T281 375V269Q281 -8 147 -8Z" />
<glyph unicode=":" glyph-name="colon" horiz-adv-x="96" d="M18 0V60H78V0H18ZM18 331V391H78V331H18Z" />
<glyph unicode=";" glyph-name="semicolon" horiz-adv-x="96" d="M18 0V60H78V-6Q78 -47 67 -63T18 -79V-49Q38 -48 42 -40T46 0H18ZM18 331V391H78V331H18Z" />
<glyph unicode="&lt;" glyph-name="less" horiz-adv-x="261" d="M22 274V325L243 442V396L58 300L243 202V156L22 274Z" />
<glyph unicode="=" glyph-name="equal" horiz-adv-x="357" d="M34 235V273H323V235H34ZM34 326V364H323V326H34Z" />
<glyph unicode="&gt;" glyph-name="greater" horiz-adv-x="261" d="M238 325V274L18 156V202L202 300L18 396V442L238 325Z" />
<glyph unicode="?" glyph-name="question" horiz-adv-x="269" d="M164 0H104V60H164V0ZM134 596Q94 596 76 560T54 453L10 458Q12 542 42 590T134 638Q254 638 254 473Q254 434 244 397T223 338T188 269Q155 207 155 149H111Q111 192 118 218T147 287Q180 350
193 387T206 473Q206 596 134 596Z" />
<glyph unicode="@" glyph-name="at" horiz-adv-x="491" d="M352 74Q383 74 403 121T423 263Q423 371 382 434T264 497Q171 497 120 412T69 185Q69 55 117 -17T246 -90Q318 -90 378 -45L392 -76Q332 -132 245 -132Q148 -132 87 -50T25 185Q25 343 90 442T264 541Q357
541 411 465T466 263Q466 151 431 91T348 31Q324 31 309 47T292 93Q268 31 213 31Q172 31 149 66T126 164Q126 245 162 311T256 378Q282 378 299 361T323 316L333 370H371L327 134Q322 101 328 88T352 74ZM297 191L302 218Q311 267 301 300T260 334Q221 334 195
284T169 162Q169 75 219 75Q244 75 265 104T297 191Z" />
<glyph unicode="A" glyph-name="A" horiz-adv-x="311" d="M260 0L219 215H89L48 0H0L126 630H185L311 0H260ZM98 259H210L156 542H152L98 259Z" />
<glyph unicode="B" glyph-name="B" horiz-adv-x="313" d="M34 630H114Q212 630 247 588T283 464Q283 409 258 374T187 328Q295 312 295 175Q295 87 256 44T123 0H34V630ZM82 588V348H122Q186 348 209 377T233 468Q233 528 210 558T122 588H82ZM127 307H82V42H127Q193
42 219 74T246 175T220 275T127 307Z" />
<glyph unicode="C" glyph-name="C" horiz-adv-x="292" d="M26 263V367Q26 502 57 570T159 638Q216 638 246 591T278 459L233 450Q231 596 159 596Q114 596 96 544T77 387V243Q77 139 95 87T159 34Q231 34 233 180L278 171Q276 87 246 40T159 -8Q88 -8 57 60T26 263Z" />
<glyph unicode="D" glyph-name="D" horiz-adv-x="314" d="M288 373V257Q288 116 255 58T136 0H34V630H136Q221 630 254 572T288 373ZM239 265V365Q239 495 216 542T133 589H84V41H133Q193 41 216 88T239 265Z" />
<glyph unicode="E" glyph-name="E" horiz-adv-x="267" d="M252 42V0H34V630H244V588H82V349H208V306H82V42H252Z" />
<glyph unicode="F" glyph-name="F" horiz-adv-x="249" d="M82 0H34V630H239V588H82V340H204V297H82V0Z" />
<glyph unicode="G" glyph-name="G" horiz-adv-x="316" d="M283 458L238 449Q237 516 218 556T162 596Q77 596 77 387V243Q77 140 96 87T160 34T223 86T241 243V264H171V307H286V0H252L245 75Q239 35 214 14T156 -8Q88 -8 57 60T26 263V367Q26 501 58 569T162 638Q220
638 250 590T283 458Z" />
<glyph unicode="H" glyph-name="H" horiz-adv-x="343" d="M84 0H34V630H84V349H259V630H309V0H259V306H84V0Z" />
<glyph unicode="I" glyph-name="I" horiz-adv-x="118" d="M34 630H84V0H34V630Z" />
<glyph unicode="J" glyph-name="J" horiz-adv-x="280" d="M7 140L51 152Q60 32 127 32Q200 32 200 159V630H249V153Q249 81 220 37T127 -8Q71 -8 40 33T7 140Z" />
<glyph unicode="K" glyph-name="K" horiz-adv-x="302" d="M302 0H250L125 294L84 208V0H34V630H84V293L241 630H290L157 347L302 0Z" />
<glyph unicode="L" glyph-name="L" horiz-adv-x="259" d="M34 630H84V42H249V0H34V630Z" />
<glyph unicode="M" glyph-name="M" horiz-adv-x="431" d="M100 630L214 121H218L331 630H397V0H349V505H345L231 0H199L84 505H80V0H34V630H100Z" />
<glyph unicode="N" glyph-name="N" horiz-adv-x="342" d="M262 160V630H308V0H270L84 505H80V0H34V630H82L258 160H262Z" />
<glyph unicode="O" glyph-name="O" horiz-adv-x="320" d="M294 367V263Q294 128 263 60T160 -8T58 60T26 263V367Q26 502 57 570T160 638T262 570T294 367ZM77 387V243Q77 140 96 87T160 34T224 87T243 243V387Q243 490 224 543T160 596T96 543T77 387Z" />
<glyph unicode="P" glyph-name="P" horiz-adv-x="302" d="M83 294H120Q185 294 213 328T241 441T213 553T120 588H83V294ZM83 252V0H34V630H116Q212 630 251 583T290 441T251 300T116 252H83Z" />
<glyph unicode="Q" glyph-name="Q" horiz-adv-x="320" d="M26 263V367Q26 502 57 570T160 638T262 570T294 367V263Q294 18 187 -5L222 -73H168L135 -6Q26 16 26 263ZM243 243V387Q243 490 224 543T160 596T96 543T77 387V243Q77 140 96 87T160 34T224 87T243 243Z" />
<glyph unicode="R" glyph-name="R" horiz-adv-x="314" d="M296 0H243Q228 42 223 152Q220 222 203 250T131 278H83V0H34V630H130Q218 630 256 585T294 453Q294 316 191 298Q224 291 242 270T265 223T272 154Q274 110 275 89T282 43T296 0ZM83 320H128Q192 320
217 353T242 455Q242 521 217 554T128 588H83V320Z" />
<glyph unicode="S" glyph-name="S" horiz-adv-x="278" d="M12 159L56 164Q58 100 79 66T139 31Q176 31 195 59T214 138Q214 173 204 199T184 236T147 273L98 320Q71 346 58 362T32 413T18 494Q18 557 50 597T139 638Q253 638 260 485L215 480Q210 599 140 599Q104
599 86 571T67 494Q67 458 75 433T94 395T129 360L177 315Q204 290 219 272T248 218T263 138Q263 74 231 33T140 -8Q17 -8 12 159Z" />
<glyph unicode="T" glyph-name="T" horiz-adv-x="301" d="M174 0H124V588H10V630H291V588H174V0Z" />
<glyph unicode="U" glyph-name="U" horiz-adv-x="318" d="M226 -8T159 -8T62 36T31 151V630H80V156Q80 31 159 31T238 156V630H287V151Q287 80 257 36Z" />
<glyph unicode="V" glyph-name="V" horiz-adv-x="298" d="M172 0H126L0 630H49L148 114H152L251 630H298L172 0Z" />
<glyph unicode="W" glyph-name="W" horiz-adv-x="422" d="M306 134L377 630H422L326 0H282L213 490H209L140 0H96L0 630H47L118 134H122L190 630H234L302 134H306Z" />
<glyph unicode="X" glyph-name="X" horiz-adv-x="295" d="M282 630L174 324L295 0H245L146 270L47 0H0L120 328L13 630H63L148 382L235 630H282Z" />
<glyph unicode="Y" glyph-name="Y" horiz-adv-x="304" d="M155 299L256 630H304L176 230V0H129V230L0 630H50L155 299Z" />
<glyph unicode="Z" glyph-name="Z" horiz-adv-x="281" d="M70 42H266V0H15V31L210 588H20V630H264V596L70 42Z" />
<glyph unicode="[" glyph-name="bracketleft" horiz-adv-x="141" d="M79 621V-45H131V-84H34V660H131V621H79Z" />
<glyph unicode="\" glyph-name="backslash" horiz-adv-x="155" d="M45 660L165 -84H120L0 660H45Z" />
<glyph unicode="]" glyph-name="bracketright" horiz-adv-x="141" d="M62 -45V621H10V660H107V-84H10V-45H62Z" />
<glyph unicode="^" glyph-name="asciicircum" horiz-adv-x="232" d="M95 630H137L227 430H180L116 579L52 430H5L95 630Z" />
<glyph unicode="_" glyph-name="underscore" horiz-adv-x="201" d="M10 -105V-62H191V-105H10Z" />
<glyph unicode="`" glyph-name="grave" horiz-adv-x="250" d="M170 481H146L79 600H138L170 481Z" />
<glyph unicode="a" glyph-name="a" horiz-adv-x="259" d="M219 309V55Q219 35 236 35Q245 35 259 42V7Q245 -6 223 -6Q178 -6 171 53Q164 27 144 11T94 -6Q57 -6 35 20T12 89Q12 124 29 154T69 203T119 247L172 294V318Q172 358 162 381T123 404Q70 404 62 302L20
309Q32 442 123 442Q177 442 198 407T219 309ZM172 142V247L128 208Q93 177 77 153T60 94Q60 33 110 33Q137 33 154 65T172 142Z" />
<glyph unicode="b" glyph-name="b" horiz-adv-x="277" d="M80 630V384Q88 410 108 426T156 442Q259 442 259 227V207Q259 -8 156 -8Q128 -8 108 8T80 50L70 0H32V630H80ZM80 280V154Q80 97 97 64T144 30Q180 30 195 71T210 201V233Q210 321 195 362T144 404Q114
404 97 371T80 280Z" />
<glyph unicode="c" glyph-name="c" horiz-adv-x="250" d="M67 240V194Q67 31 131 31Q185 31 189 142L231 132Q224 -8 132 -8Q18 -8 18 207V227Q18 442 132 442Q222 442 231 304L191 296Q183 403 131 403Q67 403 67 240Z" />
<glyph unicode="d" glyph-name="d" horiz-adv-x="277" d="M197 154V280Q197 337 180 370T133 404Q97 404 82 363T67 233V201Q67 113 82 72T133 30Q163 30 180 63T197 154ZM197 384V630H245V0H197V50Q189 24 169 8T121 -8Q18 -8 18 207V227Q18 442 121 442Q149
442 169 426T197 384Z" />
<glyph unicode="e" glyph-name="e" horiz-adv-x="251" d="M18 207V226Q18 442 129 442Q185 442 209 392T233 232V209H66V195Q66 31 131 31Q183 31 191 138L231 130Q222 -8 132 -8Q18 -8 18 207ZM66 245H189Q189 403 129 403Q66 403 66 245Z" />
<glyph unicode="f" glyph-name="f" horiz-adv-x="154" d="M170 631L165 594Q150 601 129 601Q87 601 87 544V434H151V398H87V0H38V398H2V434H38V527Q38 638 130 638Q155 638 170 631Z" />
<glyph unicode="g" glyph-name="g" horiz-adv-x="269" d="M277 455V404Q242 404 219 384Q238 346 238 296V285Q238 218 208 179T128 139Q112 139 101 143Q67 123 67 98Q67 65 109 65H161Q213 65 244 36T275 -47Q275 -105 235 -141T131 -178Q69 -178 30 -148T-9
-65Q-9 4 60 30Q24 42 24 88Q24 131 74 155Q18 190 18 285V296Q18 363 48 402T128 442Q175 442 207 404Q231 455 277 455ZM190 283V298Q190 347 174 376T128 405T82 376T66 298V283Q66 234 82 205T128 176T174 205T190 283ZM153 22H116Q82 22 59 1T36 -55Q36 -95
61 -118T131 -141Q176 -141 203 -117T231 -50Q231 22 153 22Z" />
<glyph unicode="h" glyph-name="h" horiz-adv-x="286" d="M80 293V0H32V630H80V386Q89 410 111 426T164 442Q212 442 233 412T254 332V0H206V322Q206 401 148 401Q114 401 97 371T80 293Z" />
<glyph unicode="i" glyph-name="i" horiz-adv-x="112" d="M32 434H80V0H32V434ZM32 520V593H80V520H32Z" />
<glyph unicode="j" glyph-name="j" horiz-adv-x="112" d="M80 434V-78Q80 -129 62 -153T2 -178Q-15 -178 -33 -171L-28 -135Q-16 -140 -3 -140Q17 -140 24 -128T32 -89V434H80ZM32 520V593H80V520H32Z" />
<glyph unicode="k" glyph-name="k" horiz-adv-x="275" d="M80 148V0H32V630H80V216L213 434H262L145 243L273 0H221L114 205L80 148Z" />
<glyph unicode="l" glyph-name="l" horiz-adv-x="112" d="M32 630H80V0H32V630Z" />
<glyph unicode="m" glyph-name="m" horiz-adv-x="446" d="M366 0V324Q366 401 310 401Q280 401 264 372T247 296V0H199V324Q199 401 143 401Q113 401 97 372T80 296V0H32V434H80V385Q98 442 159 442Q221 442 239 382Q247 407 270 424T324 442Q370 442 392 413T414
337V0H366Z" />
<glyph unicode="n" glyph-name="n" horiz-adv-x="286" d="M80 293V0H32V434H80V386Q89 410 111 426T164 442Q212 442 233 412T254 332V0H206V322Q206 401 148 401Q114 401 97 371T80 293Z" />
<glyph unicode="o" glyph-name="o" d="M67 229V205Q67 110 82 71T132 31T181 70T197 205V229Q197 324 182 363T132 403T83 364T67 229ZM246 226V208Q246 98 219 45T132 -8T46 45T18 208V226Q18 336 45 389T132 442T218 389T246 226Z" />
<glyph unicode="p" glyph-name="p" horiz-adv-x="277" d="M80 280V154Q80 97 97 64T144 30Q180 30 195 71T210 201V233Q210 321 195 362T144 404Q114 404 97 371T80 280ZM80 50V-170H32V434H80V384Q88 410 108 426T156 442Q259 442 259 227V207Q259 -8 156 -8Q128
-8 108 8T80 50Z" />
<glyph unicode="q" glyph-name="q" horiz-adv-x="277" d="M197 -170V50Q189 24 169 8T121 -8Q18 -8 18 207V227Q18 442 121 442Q149 442 169 426T197 384V434H245V-170H197ZM197 154V280Q197 337 180 370T133 404Q97 404 82 363T67 233V201Q67 113 82 72T133 30Q163
30 180 63T197 154Z" />
<glyph unicode="r" glyph-name="r" horiz-adv-x="179" d="M179 435L175 392Q160 395 148 395Q80 395 80 285V0H32V434H80V377Q93 438 155 438Q168 438 179 435Z" />
<glyph unicode="s" glyph-name="s" horiz-adv-x="237" d="M9 118L51 127Q51 82 70 56T120 30Q179 30 179 103Q179 132 168 149T132 180L93 205Q20 251 20 333Q20 381 47 411T120 442T192 411T220 328L180 316Q171 404 120 404Q94 404 79 385T64 334Q64 279 110
250L151 224Q187 201 205 176T224 106Q224 54 196 23T120 -8Q71 -8 41 27T9 118Z" />
<glyph unicode="t" glyph-name="t" horiz-adv-x="183" d="M45 67V398H0V421L13 424Q36 429 43 443T57 493L65 540H92V434H169V398H92V74Q92 39 116 39Q141 39 168 56L173 23Q143 -4 106 -4Q45 -4 45 67Z" />
<glyph unicode="u" glyph-name="u" horiz-adv-x="282" d="M202 141V434H250V0H202V47Q182 -8 120 -8Q32 -8 32 102V434H80V112Q80 33 133 33Q202 33 202 141Z" />
<glyph unicode="v" glyph-name="v" horiz-adv-x="263" d="M158 0H117L0 434H49L136 84H140L217 434H263L158 0Z" />
<glyph unicode="w" glyph-name="w" horiz-adv-x="386" d="M214 434L276 106H280L343 434H386L297 0H258L195 339H191L128 0H89L0 434H45L108 106H112L174 434H214Z" />
<glyph unicode="x" glyph-name="x" horiz-adv-x="244" d="M238 434L146 223L243 0H196L120 174L46 0H1L98 221L6 434H53L124 271L193 434H238Z" />
<glyph unicode="y" glyph-name="y" horiz-adv-x="262" d="M113 3L0 434H49L134 87H138L216 434H262L114 -170H69L113 3Z" />
<glyph unicode="z" glyph-name="z" horiz-adv-x="230" d="M165 394H20V434H215V401L67 40H214V0H16V33L165 394Z" />
<glyph unicode="{" glyph-name="braceleft" horiz-adv-x="162" d="M10 267V309H35Q62 309 62 354V582Q62 621 75 640T126 660H152V621H131Q106 621 106 589V364Q106 346 106 340T102 319T90 298T66 288Q81 285 90 278T102 257T105 237T106 212V-13Q106 -45 131
-45H152V-84H126Q89 -84 76 -65T62 -6V222Q62 267 35 267H10Z" />
<glyph unicode="|" glyph-name="bar" horiz-adv-x="113" d="M34 -83V660H79V-83H34Z" />
<glyph unicode="}" glyph-name="braceright" horiz-adv-x="162" d="M152 309V267H127Q100 267 100 222V-6Q100 -45 87 -64T36 -84H10V-45H31Q56 -45 56 -13V212Q56 230 56 236T60 257T72 278T96 288Q81 291 72 298T60 319T57 339T56 364V589Q56 621 31 621H10V660H36Q73
660 86 641T100 582V354Q100 309 127 309H152Z" />
<glyph unicode="~" glyph-name="asciitilde" horiz-adv-x="295" d="M58 214H20Q20 321 92 321Q118 321 152 291T203 261Q223 261 229 274T237 318H275Q275 211 203 211Q177 211 143 241T92 271Q72 271 66 258T58 214Z" />
</font>
</defs>
</svg>
